<svg width="61" height="65" viewBox="0 0 61 65" fill="none" xmlns="http://www.w3.org/2000/svg">
<path d="M28.4888 64.951C26.9872 64.7623 25.3311 64.2903 23.9839 63.6639C23.0143 63.2178 6.88276 53.882 6.05902 53.29C5.09799 52.6121 3.69935 51.2478 2.96142 50.2696C1.38258 48.1673 0.370069 45.6275 0.0869086 43.0533C-0.0246395 41.9464 -0.0332201 23.069 0.0869086 22.005C0.361489 19.5853 1.12516 17.4744 2.49806 15.3979C3.2789 14.2052 5.07225 12.3861 6.22205 11.6053C7.32895 10.8588 22.9543 1.84913 23.9839 1.36862C27.8452 -0.450475 32.393 -0.459056 36.2457 1.36004C36.8806 1.65178 52.4373 10.6014 53.5442 11.305C56.3586 13.0897 58.6068 16.0758 59.5764 19.3021C60.2199 21.4215 60.1856 20.7951 60.2199 31.8298C60.2371 38.6085 60.2199 42.0494 60.1513 42.7272C59.9625 44.7265 59.5335 46.2281 58.6497 48.0043C57.4913 50.3297 55.8181 52.2174 53.63 53.6504C53.0551 54.0193 43.522 59.5538 37.4984 63.0032C35.9282 63.9042 34.2721 64.5048 32.5045 64.8309C31.6379 64.9854 29.364 65.054 28.4888 64.951ZM32.4616 58.6529C32.925 58.5327 33.6028 58.3096 33.9632 58.1466C34.7269 57.8205 49.4512 49.3343 50.2836 48.7508C51.4248 47.9442 52.6518 46.4941 53.3211 45.147C53.6901 44.4262 54.0504 43.2335 54.1877 42.3239C54.3765 41.0797 54.3765 23.9528 54.1877 22.7086C53.8788 20.6664 52.935 18.7787 51.4934 17.3286C51.133 16.9682 50.6268 16.5134 50.3694 16.3246C49.8803 15.9643 35.2932 7.51234 34.3665 7.05757C32.9507 6.34538 31.4834 6.04506 29.733 6.1137C28.2828 6.16519 27.2446 6.41402 26.0605 6.97176C25.1852 7.39222 11.113 15.4837 10.1691 16.1101C8.2385 17.4058 6.78838 19.4995 6.16199 21.8935C5.99038 22.5542 5.97322 22.8631 5.94747 26.0637L5.90457 29.5131H8.95069H11.9968L12.0397 27.3078C12.0826 24.9396 12.1427 24.5277 12.5803 23.4809C13.0694 22.3139 14.0476 21.0869 15.0601 20.3747C15.3433 20.1773 18.1405 18.5299 21.281 16.7194C28.197 12.7379 27.9911 12.8237 30.1191 12.8237C32.2471 12.8237 32.024 12.7294 39.0858 16.8052C42.295 18.6586 45.058 20.2803 45.221 20.4004C46.5681 21.4044 47.5378 22.8459 47.9754 24.4934C48.207 25.36 48.2328 27.0247 48.0269 27.9256C47.4005 30.68 45.5642 32.9796 42.93 34.3011C42.1834 34.6786 41.6171 34.8931 40.6304 35.1591L39.7723 35.3908L28.9006 35.4165L18.0204 35.4423V36.4033C18.0204 38.0594 18.4151 39.089 19.4362 40.1101C19.9854 40.6593 20.4058 40.9167 23.9839 42.9846C26.1548 44.2288 28.1799 45.3529 28.4888 45.4644C28.9779 45.6532 29.1838 45.679 30.1191 45.679C31.063 45.679 31.2603 45.6532 31.7494 45.4644C32.0583 45.3443 34.0833 44.2203 36.2542 42.9675C38.4852 41.6804 40.4845 40.5821 40.8449 40.4534C41.3769 40.256 41.6686 40.2045 42.5181 40.1702C43.7709 40.1273 44.32 40.2388 45.4355 40.7966C46.3193 41.2342 47.0058 41.8005 47.512 42.5299L47.8724 43.0361L40.6389 47.2578C36.6661 49.5831 33.1481 51.591 32.8134 51.7283C31.0372 52.4748 28.7033 52.4062 27.0043 51.5481C26.2235 51.162 15.369 44.8895 15.0172 44.6321C13.6958 43.6453 12.709 42.1866 12.2542 40.5649C12.1084 40.0329 12.074 39.5953 12.0397 37.6904L11.9968 35.4337H8.95927H5.92173V38.5485C5.92173 40.8652 5.95606 41.852 6.05044 42.4269C6.47947 45.0869 8.0154 47.4723 10.2549 48.9482C11.2417 49.6003 25.3225 57.7176 26.0605 58.0608C26.7469 58.3783 27.931 58.7387 28.7033 58.8588C29.63 58.9961 31.5177 58.9017 32.4616 58.6529ZM39.7466 29.3157C40.2871 29.0669 40.7505 28.6378 41.0765 28.0715C41.2996 27.7026 41.3168 27.591 41.3168 26.8102C41.3168 26.0036 41.2996 25.9178 41.0336 25.4287C40.8792 25.1369 40.6046 24.768 40.433 24.5964C40.167 24.3389 33.4999 20.4004 32.2557 19.7741C31.0458 19.1562 29.2267 19.1391 28.034 19.7397C27.8366 19.8427 25.9575 20.9067 23.8552 22.1166C20.3972 24.1073 19.9768 24.3733 19.4276 24.9224C18.9814 25.3686 18.7412 25.6947 18.5095 26.1666C18.1234 26.9904 18.0204 27.5052 18.0204 28.6121V29.5131L28.0426 29.5388C33.5513 29.556 38.3393 29.556 38.674 29.5474C39.1202 29.5302 39.4291 29.4702 39.7466 29.3157Z" fill="url(#paint0_linear)"/>
<defs>
<linearGradient id="paint0_linear" x1="30.1131" y1="0" x2="30.1131" y2="65" gradientUnits="userSpaceOnUse">
<stop offset="0.229167" stop-color="#163DFA"/>
<stop offset="0.8125" stop-color="#EC5DFF"/>
</linearGradient>
</defs>
</svg>
